<?xml version="1.0" encoding="UTF-8" standalone="no"?>
<!-- Created with Inkscape (http://www.inkscape.org/) -->

<svg
   xmlns:dc="http://purl.org/dc/elements/1.1/"
   xmlns:cc="http://creativecommons.org/ns#"
   xmlns:rdf="http://www.w3.org/1999/02/22-rdf-syntax-ns#"
   xmlns:svg="http://www.w3.org/2000/svg"
   xmlns="http://www.w3.org/2000/svg"
   xmlns:sodipodi="http://sodipodi.sourceforge.net/DTD/sodipodi-0.dtd"
   xmlns:inkscape="http://www.inkscape.org/namespaces/inkscape"
   width="50"
   height="50"
   viewBox="0 0 13.229166 13.229167"
   version="1.1"
   id="svg8"
   inkscape:version="0.92.5 (2060ec1f9f, 2020-04-08)"
   sodipodi:docname="storage-sample.svg">
  <defs
     id="defs2" />
  <sodipodi:namedview
     id="base"
     pagecolor="#ffffff"
     bordercolor="#666666"
     borderopacity="1.0"
     inkscape:pageopacity="0.0"
     inkscape:pageshadow="2"
     inkscape:zoom="5.6"
     inkscape:cx="77.424922"
     inkscape:cy="33.416249"
     inkscape:document-units="px"
     inkscape:current-layer="layer1"
     showgrid="false"
     units="px"
     inkscape:window-width="2488"
     inkscape:window-height="1376"
     inkscape:window-x="72"
     inkscape:window-y="27"
     inkscape:window-maximized="1"
     inkscape:snap-global="false" />
  <metadata
     id="metadata5">
    <rdf:RDF>
      <cc:Work
         rdf:about="">
        <dc:format>image/svg+xml</dc:format>
        <dc:type
           rdf:resource="http://purl.org/dc/dcmitype/StillImage" />
        <dc:title />
      </cc:Work>
    </rdf:RDF>
  </metadata>
  <g
     inkscape:label="Layer 1"
     inkscape:groupmode="layer"
     id="layer1"
     transform="translate(0,-283.77081)">
    <path
       style="fill:#ffffff;fill-opacity:1;fill-rule:evenodd;stroke:#000000;stroke-width:0.9454211;stroke-linecap:round;stroke-linejoin:round;stroke-miterlimit:4;stroke-dasharray:none;stroke-opacity:1"
       d="m 0.79978363,286.01868 v 8.89899 c 4.06354137,1.64977 6.94038737,1.5425 11.58224637,0 v -8.89899 c -3.4603031,1.54482 -6.9709992,2.89522 -11.58224637,0 z"
       id="path839"
       inkscape:connector-curvature="0"
       sodipodi:nodetypes="ccccc" />
    <path
       style="fill:#ffffff;fill-opacity:1;fill-rule:evenodd;stroke:#000000;stroke-width:0.9454211;stroke-linecap:butt;stroke-linejoin:round;stroke-miterlimit:4;stroke-dasharray:none;stroke-opacity:1"
       d="m 7.1830931,284.66399 c -2.1754968,-0.0392 -4.2921154,0.52787 -6.38317144,1.3547 4.01323264,2.49303 7.86265134,2.30554 11.58238334,0 -1.779439,-0.92679 -3.5071586,-1.32417 -5.1992119,-1.3547 z"
       id="path841"
       inkscape:connector-curvature="0" />
    <path
       style="fill:none;fill-rule:evenodd;stroke:#000000;stroke-width:0.47271055px;stroke-linecap:butt;stroke-linejoin:miter;stroke-opacity:1"
       d="m 0.66766686,288.82994 c 4.05814934,2.62904 7.87525924,2.04784 11.58224614,0"
       id="path858"
       inkscape:connector-curvature="0"
       sodipodi:nodetypes="cc" />
    <path
       style="fill:none;fill-rule:evenodd;stroke:#000000;stroke-width:0.47271055px;stroke-linecap:butt;stroke-linejoin:miter;stroke-opacity:1"
       d="m 0.71922436,291.61445 c 4.05814914,2.62905 7.87525894,2.04784 11.58224464,0"
       id="path858-5"
       inkscape:connector-curvature="0"
       sodipodi:nodetypes="cc" />
    <path
       style="fill:#9fff05;fill-opacity:1;fill-rule:evenodd;stroke:#000000;stroke-width:0.05291667;stroke-linecap:butt;stroke-linejoin:round;stroke-miterlimit:4;stroke-dasharray:none;stroke-opacity:1"
       d="m 3.1053814,290.45031 -0.064469,0.75387 -0.2128964,-0.43137 -0.5118126,0.18277 0.8958784,1.08682 -0.9327897,0.9156 -0.4695837,-0.7336 0.3830336,0.2329 0.5357405,-0.3693 -0.8322401,-0.96976 0.027997,-0.63888 z"
       id="path817"
       inkscape:connector-curvature="0"
       sodipodi:nodetypes="cccccccccccc" />
    <path
       style="fill:#9fff05;fill-opacity:1;fill-rule:evenodd;stroke:#000000;stroke-width:0.05291667;stroke-linecap:butt;stroke-linejoin:round;stroke-miterlimit:4;stroke-dasharray:none;stroke-opacity:1"
       d="m 4.1672028,290.38566 -0.2862669,0.0402 -0.4605862,2.4513 h 0.3486401 l 0.161791,-0.91116 0.385956,-0.0727 0.4232711,1.09672 0.2241642,-0.0646 z m -0.1106221,0.62121 0.1848102,0.61578 -0.2728146,0.0398 z"
       id="path819"
       inkscape:connector-curvature="0"
       sodipodi:nodetypes="ccccccccccccc" />
    <path
       style="fill:#9fff05;fill-opacity:1;fill-rule:evenodd;stroke:#000000;stroke-width:0.05291667;stroke-linecap:butt;stroke-linejoin:round;stroke-miterlimit:4;stroke-dasharray:none;stroke-opacity:1"
       d="m 5.1552016,290.3382 0.1204158,2.23372 0.2124987,0.006 -0.028334,-1.27462 0.4108302,0.41647 0.2549987,-0.43539 0.141665,1.28723 0.2124987,0.0126 -0.1204158,-2.27789 -0.3116644,0.0189 -0.2054151,0.97173 -0.4604138,-0.97804 z"
       id="path821"
       inkscape:connector-curvature="0" />
    <path
       style="fill:#9fff05;fill-opacity:1;fill-rule:evenodd;stroke:#000000;stroke-width:0.05291667;stroke-linecap:butt;stroke-linejoin:round;stroke-miterlimit:4;stroke-dasharray:none;stroke-opacity:1"
       d="m 7.9074273,290.34615 -1.1116993,0.008 0.014673,2.22081 0.4935944,0.031 -0.044026,-1.22197 0.5620759,-0.0509 0.4464581,-0.48267 z m -0.278306,0.29124 0.1574167,0.18912 -0.1423607,0.13264 -0.3812814,0.0471 1.272e-4,-0.32636 z"
       id="path823"
       inkscape:connector-curvature="0"
       sodipodi:nodetypes="cccccccccccccc" />
    <path
       style="fill:#9fff05;fill-opacity:1;fill-rule:evenodd;stroke:#000000;stroke-width:0.05291667;stroke-linecap:butt;stroke-linejoin:round;stroke-miterlimit:4;stroke-dasharray:none;stroke-opacity:1"
       d="m 8.5228382,290.43132 -0.084653,2.58589 1.3403495,-0.0184 -0.00941,-0.28733 -0.9970314,0.0489 -0.023515,-2.37194 z"
       id="path825"
       inkscape:connector-curvature="0" />
    <path
       style="fill:#9fff05;fill-opacity:1;fill-rule:evenodd;stroke:#000000;stroke-width:0.05291667;stroke-linecap:butt;stroke-linejoin:round;stroke-miterlimit:4;stroke-dasharray:none;stroke-opacity:1"
       d="m 10.086967,290.58857 -0.0055,2.46005 1.373217,-0.0331 -0.01116,-0.32064 -0.932225,0.0387 -0.05024,-0.5694 0.524726,-0.0498 0.03349,-0.29855 -0.569382,-0.0221 -0.05024,-0.87347 0.893148,-0.0719 0.03908,-0.30959 z"
       id="path827"
       inkscape:connector-curvature="0" />
  </g>
</svg>
